<svg width="256" height="256" viewBox="0 0 256 256" fill="none" xmlns="http://www.w3.org/2000/svg">
<path d="M44.5068 246.261L44.4466 246.18L44.2743 245.897C43.2704 244.236 42.2905 242.56 41.335 240.87C29.9054 220.455 20.6621 198.886 13.7585 176.523C1.64216 136.727 -5.16439 84.1204 20.8094 39.1545C40.1904 5.60206 83.753 -4.737 117.781 14.8996C127.268 20.312 135.409 27.7967 141.599 36.7969C147.789 45.7972 151.869 56.0814 153.536 66.8848C163.732 62.925 174.685 61.3148 185.581 62.1741C196.476 63.0334 207.034 66.3402 216.467 71.8482C250.484 91.4782 263.307 134.356 243.926 167.908C217.946 212.885 168.962 233.297 128.436 242.684C105.607 247.89 82.2974 250.674 58.8935 250.987C56.9495 251.009 55.0054 251.003 53.0617 250.968L52.7305 250.96L52.6239 250.96L52.583 250.952C50.962 250.894 49.3805 250.44 47.9765 249.63C46.5724 248.82 45.3884 247.678 44.5279 246.303L44.5068 246.261Z" fill="#FB6F92"/>
</svg>
