<svg width="107" height="30" viewBox="0 0 107 30" fill="none" xmlns="http://www.w3.org/2000/svg">
<path d="M7.75642 23.5H1.11288V6.23353H7.68897C9.46508 6.23353 10.9995 6.5792 12.2922 7.27053C13.5906 7.95625 14.5911 8.94547 15.2936 10.2382C16.0018 11.5253 16.3559 13.0682 16.3559 14.8668C16.3559 16.6654 16.0046 18.211 15.3021 19.5038C14.5995 20.7909 13.6046 21.7801 12.3175 22.4714C11.0304 23.1571 9.51005 23.5 7.75642 23.5ZM5.80045 19.5206H7.5878C8.44213 19.5206 9.17 19.3829 9.7714 19.1075C10.3784 18.8321 10.8393 18.3572 11.1541 17.6827C11.4744 17.0082 11.6346 16.0696 11.6346 14.8668C11.6346 13.664 11.4716 12.7253 11.1456 12.0508C10.8253 11.3764 10.3531 10.9014 9.72925 10.626C9.11098 10.3506 8.3522 10.2129 7.45291 10.2129H5.80045V19.5206ZM28.743 6.23353H33.4306V17.2949C33.4306 18.6101 33.1158 19.7483 32.4863 20.7094C31.8624 21.6649 30.9913 22.404 29.8728 22.9267C28.7543 23.4438 27.4559 23.7023 25.9777 23.7023C24.4882 23.7023 23.1842 23.4438 22.0657 22.9267C20.9473 22.404 20.0761 21.6649 19.4522 20.7094C18.8339 19.7483 18.5248 18.6101 18.5248 17.2949V6.23353H23.2124V16.8902C23.2124 17.4241 23.3304 17.9019 23.5664 18.3234C23.8025 18.7394 24.1285 19.0654 24.5444 19.3014C24.966 19.5375 25.4437 19.6555 25.9777 19.6555C26.5173 19.6555 26.995 19.5375 27.4109 19.3014C27.8269 19.0654 28.1529 18.7394 28.3889 18.3234C28.625 17.9019 28.743 17.4241 28.743 16.8902V6.23353ZM42.302 23.5H35.6585V6.23353H42.2346C44.0107 6.23353 45.5451 6.5792 46.8378 7.27053C48.1362 7.95625 49.1366 8.94547 49.8392 10.2382C50.5474 11.5253 50.9015 13.0682 50.9015 14.8668C50.9015 16.6654 50.5502 18.211 49.8476 19.5038C49.1451 20.7909 48.1502 21.7801 46.8631 22.4714C45.576 23.1571 44.0556 23.5 42.302 23.5ZM40.346 19.5206H42.1334C42.9877 19.5206 43.7156 19.3829 44.317 19.1075C44.924 18.8321 45.3849 18.3572 45.6996 17.6827C46.02 17.0082 46.1802 16.0696 46.1802 14.8668C46.1802 13.664 46.0172 12.7253 45.6912 12.0508C45.3708 11.3764 44.8987 10.9014 44.2748 10.626C43.6566 10.3506 42.8978 10.2129 41.9985 10.2129H40.346V19.5206ZM60.186 6.23353H64.8062V18.0705C64.8005 19.1946 64.5167 20.1838 63.9546 21.0382C63.3982 21.8869 62.6282 22.5501 61.6446 23.0279C60.6666 23.5 59.5397 23.7361 58.2638 23.7361C57.1565 23.7361 56.1448 23.545 55.2287 23.1628C54.3125 22.7749 53.5818 22.1679 53.0366 21.3417C52.4914 20.5098 52.2216 19.4307 52.2273 18.1042H56.9148C56.9317 18.537 57.0048 18.9024 57.134 19.2002C57.2689 19.4981 57.4544 19.723 57.6905 19.8747C57.9322 20.0209 58.2244 20.0939 58.5673 20.0939C58.9158 20.0939 59.208 20.018 59.4441 19.8663C59.6858 19.7145 59.8685 19.4897 59.9921 19.1918C60.1158 18.8883 60.1804 18.5145 60.186 18.0705V6.23353ZM92.0823 23.5V6.23353H99.5689C100.884 6.23353 101.989 6.41058 102.882 6.76468C103.782 7.11878 104.459 7.61901 104.914 8.26538C105.375 8.91175 105.605 9.67334 105.605 10.5502C105.605 11.1853 105.465 11.7642 105.184 12.2869C104.908 12.8096 104.521 13.248 104.02 13.6021C103.52 13.9506 102.936 14.1923 102.267 14.3272V14.4958C103.009 14.5239 103.683 14.7122 104.29 15.0607C104.897 15.4035 105.381 15.8785 105.74 16.4855C106.1 17.0869 106.28 17.7951 106.28 18.6101C106.28 19.5543 106.033 20.3946 105.538 21.1309C105.049 21.8672 104.352 22.4461 103.447 22.8677C102.542 23.2892 101.463 23.5 100.21 23.5H92.0823ZM96.7699 19.7567H98.9619C99.7488 19.7567 100.339 19.6105 100.732 19.3183C101.126 19.0204 101.323 18.582 101.323 18.0031C101.323 17.5984 101.23 17.2555 101.044 16.9745C100.859 16.6935 100.595 16.4799 100.252 16.3337C99.9146 16.1876 99.5071 16.1145 99.0293 16.1145H96.7699V19.7567ZM96.7699 13.2143H98.6921C99.1024 13.2143 99.4649 13.1497 99.7797 13.0204C100.094 12.8911 100.339 12.7056 100.513 12.464C100.693 12.2167 100.783 11.916 100.783 11.5619C100.783 11.0279 100.592 10.6204 100.21 10.3394C99.8275 10.0527 99.3441 9.9094 98.7595 9.9094H96.7699V13.2143Z" fill="#240F24"/>
<path d="M71.239 25.1431L71.2336 25.1358L71.2181 25.1103C71.1276 24.9605 71.0393 24.8094 70.9531 24.657C69.923 22.816 69.0899 20.8711 68.4677 18.8544C67.3756 15.2659 66.7621 10.5221 69.1032 6.46731C70.85 3.44171 74.7763 2.50939 77.8433 4.28012C78.6983 4.76818 79.4321 5.44311 79.99 6.25471C80.5479 7.0663 80.9157 7.99369 81.0659 8.96788C81.9849 8.6108 82.9721 8.4656 83.9541 8.54309C84.9361 8.62058 85.8877 8.91876 86.738 9.41545C89.8039 11.1856 90.9597 15.052 89.2128 18.0776C86.8712 22.1335 82.4562 23.9741 78.8036 24.8205C76.746 25.29 74.6451 25.541 72.5357 25.5693C72.3605 25.5713 72.1853 25.5707 72.0101 25.5676L71.9802 25.5669L71.9706 25.5668L71.9669 25.5661C71.8208 25.5609 71.6783 25.5199 71.5517 25.4469C71.4252 25.3738 71.3185 25.2708 71.2409 25.1469L71.239 25.1431Z" fill="#FB6F92"/>
</svg>
