<svg width="36" height="36" viewBox="0 0 36 36" fill="none" xmlns="http://www.w3.org/2000/svg">
<g clip-path="url(#clip0_2_510)">
<path d="M0 18C0 20.2018 0.39607 22.3109 1.11959 24.2608L18 25.8261L34.8804 24.2608C35.6039 22.3109 36 20.2018 36 18C36 15.7982 35.6039 13.6891 34.8804 11.7392L18 10.1739L1.11959 11.7392C0.39607 13.6891 0 15.7982 0 18Z" fill="#FFDA44"/>
<path d="M34.8804 11.7392C32.3371 4.88482 25.7393 0 18 0C10.2606 0 3.66284 4.88482 1.11957 11.7392H34.8804Z" fill="#D80027"/>
<path d="M1.11951 24.2608C3.66278 31.1152 10.2606 36 17.9999 36C25.7393 36 32.3371 31.1152 34.8803 24.2608H1.11951Z" fill="#D80027"/>
</g>
<defs>
<clipPath id="clip0_2_510">
<rect width="36" height="36" fill="white"/>
</clipPath>
</defs>
</svg>
